<svg width="128" height="128" version="1.1" viewBox="0 0 135.47 135.47" xmlns="http://www.w3.org/2000/svg"><g transform="matrix(.99909 0 0 .99998 4.7956e-6 -2.3588e-7)"><g transform="translate(115 46.144)"><g transform="translate(4.0889e-6 1.8521)"><rect x="-114.88" y="-47.996" width="135.47" height="135.47" fill="#b3b3b3" style="paint-order:normal"/><path d="m-114.78-47.993h135.25s-134.75 136.46-135.25 135.46c-0.49772-0.99702 0-135.46 0-135.46z" fill="#447e9b"/></g></g><g transform="matrix(1.2354 0 0 1.2426 -26.321 -23.068)"><path transform="matrix(1.06 0 0 1.0539 -4.2986 -6.8132)" d="m121.38 75.803a45.459 45.459 0 0 1-45.459 45.459 45.459 45.459 0 0 1-45.459-45.459 45.459 45.459 0 0 1 45.459-45.459 45.459 45.459 0 0 1 45.459 45.459z" fill="#363636" style="paint-order:markers fill stroke"/></g><g transform="matrix(.99274 0 0 .97352 -7.4152 -11.164)" stroke="#363636" stroke-linecap="round" stroke-linejoin="bevel" stroke-width="1.6118" style="paint-order:markers fill stroke"><path transform="matrix(1.2354 0 0 1.2426 -18.192 -13.147)" d="m76.048 75.8 15.08-33.304h16.324l-23.79 47.113v26.806h-15.18v-26.806l-23.79-47.113h16.374z" fill="#b3b3b3" style="paint-order:markers fill stroke"/><path transform="matrix(1.2354 0 0 1.2426 -18.192 -13.147)" d="m68.483 89.609-4.4134-8.9258c0.88466-8.0264 1.9238-9.2168 8.4896-12.282l3.5181 7.7443 4.7822-10.056s6.7576-2.588 11.337-8.4914c4.3323-5.5853 4.3249-15.321 4.3249-15.321l10.931 0.21871-23.79 47.113v26.806h-15.18c3.31e-4 -8.004 0-26.806 0-26.806z" fill="#447e9b" style="paint-order:markers fill stroke"/></g><g transform="matrix(1.4068 -.056447 .064959 1.3101 -39.357 -24.066)" fill="#447e9b"><path d="m94.952 94.204-2.8093 5.2588 2.4048 2.6238-1.7038 3.1893-11.369-13.301 1.4848-2.7794 17.174 2.4333-1.7038 3.1893zm-4.7572 3.1335 1.9441-3.6391-6.3164-1.1208z" style="paint-order:markers fill stroke"/><path d="m94.2 73.926-2.382 4.4589 11.883 6.5665-1.6023 2.9993-11.883-6.5665-2.35 4.399-2.3805-1.3155 6.3344-11.857z" style="paint-order:markers fill stroke"/><path d="m107.81 70.13-2.8093 5.2588 2.4048 2.6238-1.7038 3.1893-11.369-13.301 1.4848-2.7794 17.174 2.4333-1.7038 3.1893zm-4.7572 3.1335 1.9441-3.6391-6.3164-1.1208z" style="paint-order:markers fill stroke"/></g></g></svg>
