<svg width="512" height="512" version="1.1" viewBox="0 0 2048 2048" xmlns="http://www.w3.org/2000/svg"><g transform="translate(-2151.9 -1329.6)"><path d="m580.27 3017.8a1024 1024 0 0 1-506.38-1356.7 1024 1024 0 0 1 1356.7-506.42 1024 1024 0 0 1 506.46 1356.7 1024 1024 0 0 1-1356.7 506.49l425.08-931.6z" fill="#cdcdcd" fill-opacity=".27433" stroke-width="8.8955"/><g transform="matrix(4.0276 0 0 4.0276 -6178 -1648.8)"><path d="m2430.7 1157.3s-14.026-16.753-25.713-31.557c51.037-14.415 70.517-46.362 70.517-46.362-15.974 10.519-31.168 17.921-44.804 22.986-19.48 8.1815-38.18 13.636-56.492 16.753-37.401 7.0128-71.686 5.0648-100.91-0.3896-22.207-4.2855-41.297-10.519-57.271-16.753-8.9607-3.5064-18.701-7.792-28.441-13.246-1.1688-0.7792-2.3376-1.1688-3.5063-1.948-0.7792-0.3896-1.1688-0.7792-1.5584-1.1688-7.0128-3.896-10.909-6.6231-10.909-6.6231s18.701 31.168 68.179 45.972c-11.688 14.805-26.103 32.336-26.103 32.336-86.101-2.7272-118.83-59.219-118.83-59.219 0-125.45 56.102-227.13 56.102-227.13 56.102-42.076 109.48-40.908 109.48-40.908l3.896 4.6752c-70.127 20.259-102.46 51.037-102.46 51.037s8.5712-4.6752 22.986-11.298c41.687-18.311 74.802-23.376 88.438-24.545 2.3376-0.3896 4.2856-0.77918 6.6231-0.77918 23.766-3.1168 50.648-3.896 78.699-0.7792 37.012 4.2856 76.75 15.194 117.27 37.401 0 0-30.778-29.22-97.01-49.479l5.4544-6.2336s53.375-1.1688 109.48 40.908c0 0 56.102 101.68 56.102 227.13 0 0-33.116 56.492-119.22 59.219z" fill="#f6f6f6"/><path d="m2216.1 1101.9c-8.9607-3.5064-18.701-7.792-28.441-13.246-1.1688-0.7792-2.3376-1.1688-3.5063-1.948-0.7792-0.3896-1.1688-0.7792-1.5584-1.1688-7.0128-3.896-10.909-6.6231-10.909-6.6231s18.701 31.168 68.179 45.972c-11.688 14.805-26.103 32.336-26.103 32.336-86.101-2.7272-118.83-59.219-118.83-59.219 0-125.45 56.102-227.13 56.102-227.13 56.102-42.076 109.48-40.908 109.48-40.908l3.896 4.6752c-70.127 20.259-102.46 51.037-102.46 51.037s8.5712-4.6752 22.986-11.298c41.687-18.311 74.802-23.376 88.438-24.545 2.3376-0.3896 4.2856-0.77918 6.6231-0.77918 23.766-3.1168 50.648-3.896 78.699-0.7792 38.888 7.0027 23.372 3.6939 23.372 3.6939s15.879 5.6493 14.071 23.859c-1.5794 15.908-3.4477 37.283-13.148 52.424-11.888 18.554-23.513 33.043-44.713 37.242-18.397 3.6443-34.669 6.6935-45.939 14.933-11.357 8.3023-19.476 26.664-20.522 46.293-1.3233 24.812-18.687 49.079-42.179 58.761-12.51 5.1559-8.3093 17.348-13.533 16.422z" fill="#447e9b" opacity=".618"/><path d="m2430.7 1157.3s-14.026-16.753-25.713-31.557c51.037-14.415 70.517-46.362 70.517-46.362-15.974 10.519-31.168 17.921-44.804 22.986-19.48 8.1815-38.18 13.636-56.492 16.753-37.401 7.0128-71.686 5.0648-100.91-0.3896-22.207-4.2855-41.297-10.519-57.271-16.753 18.469-36.053 40.676-5.5449 55.77-78.126 1.2467-30.165 16.644-41.127 33.071-50.348 6.0839-3.4152 22.127-7.3677 29.888-7.9108 23.326-1.6322 41.876-23.997 50.01-39.177 10.298-19.219 10.761-42.829 11.551-52.249 0.041-18.213-12.559-18.295-14.325-22.122 45.853 11.266 51.983 11.966 93.897 33.707 0 0-30.778-29.22-97.01-49.479l5.4544-6.2336s53.375-1.1688 109.48 40.908c0 0 56.102 101.68 56.102 227.13 0 0-33.116 56.492-119.22 59.219z" fill="#b3b3b3" opacity=".618"/><path d="m2430.7 1157.3s-14.026-16.753-25.713-31.557c51.037-14.415 70.517-46.362 70.517-46.362-15.974 10.519-31.168 17.921-44.804 22.986-19.48 8.1815-38.18 13.636-56.492 16.753-37.401 7.0128-71.686 5.0648-100.91-0.3896-22.207-4.2855-41.297-10.519-57.271-16.753-8.9607-3.5064-18.701-7.792-28.441-13.246-1.1688-0.7792-2.3376-1.1688-3.5063-1.948-0.7792-0.3896-1.1688-0.7792-1.5584-1.1688-7.0128-3.896-10.909-6.6231-10.909-6.6231s18.701 31.168 68.179 45.972c-11.688 14.805-26.103 32.336-26.103 32.336-86.101-2.7272-118.83-59.219-118.83-59.219 0-125.45 56.102-227.13 56.102-227.13 56.102-42.076 109.48-40.908 109.48-40.908l3.896 4.6752c-70.127 20.259-102.46 51.037-102.46 51.037s8.5712-4.6752 22.986-11.298c41.687-18.311 74.802-23.376 88.438-24.545 2.3376-0.3896 4.2856-0.77918 6.6231-0.77918 23.766-3.1168 50.648-3.896 78.699-0.7792 37.012 4.2856 76.75 15.194 117.27 37.401 0 0-30.778-29.22-97.01-49.479l5.4544-6.2336s53.375-1.1688 109.48 40.908c0 0 56.102 101.68 56.102 227.13 0 0-33.116 56.492-119.22 59.219z" fill="none" stroke="#363636" stroke-width="2.2726"/><path d="m2217.2 1102s4.5759-9.2005 8.079-12.852c7.6255-7.9483 20.295-10.167 27.223-18.73 10.587-13.086 14.849-21.127 19.304-46.66 3.1614-18.119 3.3303-35.037 32.77-49.743 9.5595-4.7753 30.378-7.113 40.429-11.365 33.341-14.105 47.643-40.015 50.253-88.209 0.8317-15.353-13.258-22.49-13.258-22.49" fill="none" stroke="#363636" stroke-width="2.2726"/><path d="m2247.6 1006.1c-22.207 0-39.739 19.48-39.739 43.245s17.921 43.245 39.739 43.245c22.207 0 39.739-19.48 39.739-43.245 0.3896-23.765-17.532-43.245-39.739-43.245zm142.2 0c-22.207 0-39.739 19.48-39.739 43.245s17.921 43.245 39.739 43.245c22.207 0 39.739-19.48 39.739-43.245s-17.532-43.245-39.739-43.245z" fill="#363636" stroke="#363636" stroke-opacity=".5987" stroke-width="3.896"/></g><g transform="matrix(4.0276 0 0 4.0276 -8165.1 -2059)" stroke="#363636" stroke-linecap="round" stroke-linejoin="bevel" stroke-width="3"><path d="m2317.4 1001.2 57.285-127.13h62.012l-90.371 179.84v102.32h-57.664v-102.32l-13.454-26.774-76.916-153.06h62.202z" fill="#b3b3b3" opacity=".972" style="paint-order:markers fill stroke"/><path d="m2288.6 1053.9-16.766-34.071c3.3606-30.637 7.3083-35.182 32.25-46.883l13.365 29.561 18.166-38.384s25.67-9.8784 43.065-32.413c16.457-21.32 16.429-57.38 16.429-57.38l41.525-0.26634-90.371 179.84v102.32h-57.664v-102.32z" fill="#447e9b" style="paint-order:markers fill stroke"/></g></g></svg>
