<?xml version="1.0" encoding="UTF-8" standalone="no"?>
<svg
   xmlns:dc="http://purl.org/dc/elements/1.1/"
   xmlns:cc="http://creativecommons.org/ns#"
   xmlns:rdf="http://www.w3.org/1999/02/22-rdf-syntax-ns#"
   xmlns:svg="http://www.w3.org/2000/svg"
   xmlns="http://www.w3.org/2000/svg"
   id="svg28"
   viewBox="0 0 135.59064 135.46972"
   version="1.1"
   height="135.46971mm"
   width="135.59064mm">
  <metadata
     id="metadata32">
    <rdf:RDF>
      <cc:Work
         rdf:about="">
        <dc:format>image/svg+xml</dc:format>
        <dc:type
           rdf:resource="http://purl.org/dc/dcmitype/StillImage" />
        <dc:title></dc:title>
      </cc:Work>
    </rdf:RDF>
  </metadata>
  <defs
     id="defs10">
    <linearGradient
       spreadMethod="repeat"
       gradientUnits="userSpaceOnUse"
       gradientTransform="translate(30.150749,30.030821)"
       y2="-0.52916002"
       y1="92.603996"
       x2="40.480999"
       x1="40.480999"
       id="linearGradient861">
      <stop
         id="stop2"
         offset="0"
         stop-color="#757575" />
      <stop
         id="stop4"
         offset="1"
         stop-color="#fff" />
    </linearGradient>
    <filter
       style="color-interpolation-filters:sRGB"
       height="1.024"
       width="1.024"
       y="-0.012"
       x="-0.012"
       id="filter871">
      <feGaussianBlur
         id="feGaussianBlur7"
         stdDeviation="0.45459404" />
    </filter>
  </defs>
  <g
     transform="translate(114.99997,46.144274)"
     id="g916">
    <g
       transform="translate(4.0889251e-6,1.8520832)"
       id="g1123">
      <rect
         y="-47.996357"
         x="-114.87601"
         height="135.46667"
         width="135.46667"
         id="rect34"
         style="opacity:1;fill:#b3b3b3;fill-opacity:1;stroke:none;stroke-width:0.36922267;stroke-linecap:round;stroke-linejoin:bevel;stroke-miterlimit:4;stroke-dasharray:0.36922267, 0.73844535;stroke-dashoffset:0;stroke-opacity:1;paint-order:normal" />
      <path
         id="path94"
         d="M -114.77877,-47.993315 H 20.466696 c 0,0 -134.747756,136.458251 -135.245466,135.461239 -0.49772,-0.997022 0,-135.461239 0,-135.461239 z"
         style="fill:#447e9b;fill-opacity:1;stroke:none;stroke-width:0.2362276px;stroke-linecap:butt;stroke-linejoin:miter;stroke-opacity:1" />
    </g>
  </g>
  <g
     transform="matrix(1.2354389,0,0,1.2426277,-26.321317,-23.067793)"
     id="g1129">
    <path
       d="m 121.38324,75.803311 a 45.459,45.459 0 0 1 -45.459001,45.458999 45.459,45.459 0 0 1 -45.459,-45.458999 45.459,45.459 0 0 1 45.459,-45.459 45.459,45.459 0 0 1 45.459001,45.459 z"
       style="fill:#363636;fill-opacity:1;stroke:none;stroke-width:1.84420502;stroke-linecap:round;stroke-linejoin:round;stroke-miterlimit:4;stroke-dasharray:none;paint-order:markers fill stroke"
       id="path12"
       transform="matrix(1.0599951,0,0,1.0538629,-4.298586,-6.8132019)" />
  </g>
  <g
     style="stroke:#363636;stroke-width:1.99708772;stroke-linecap:round;stroke-linejoin:bevel;stroke-miterlimit:4;stroke-dasharray:none;stroke-opacity:1;paint-order:markers fill stroke"
     transform="matrix(0.99273977,0,0,0.97352331,-7.4151673,-11.163603)"
     id="g1211">
    <path
       transform="matrix(1.2354389,0,0,1.2426277,-18.192398,-13.147261)"
       id="path14"
       style="fill:#b3b3b3;fill-opacity:1;stroke:#363636;stroke-width:1.61181796;stroke-linecap:round;stroke-linejoin:bevel;stroke-miterlimit:4;stroke-dasharray:none;stroke-opacity:1;paint-order:markers fill stroke"
       d="M 76.048222,75.800269 91.128185,42.495964 H 107.45249 L 83.662967,89.609245 V 116.41511 H 68.48332 V 89.609245 L 64.941517,82.594984 44.693794,42.495964 h 16.374151 z" />
    <path
       transform="matrix(1.2354389,0,0,1.2426277,-18.192398,-13.147261)"
       id="path1076"
       d="m 68.48332,89.609245 -4.413402,-8.925821 c 0.884657,-8.026383 1.923849,-9.216841 8.489554,-12.282315 l 3.518137,7.744315 4.782239,-10.055763 c 0,0 6.757577,-2.587952 11.33664,-8.491443 4.332279,-5.585328 4.324888,-15.320967 4.324888,-15.320967 L 107.45249,42.495964 83.662967,89.609245 V 116.41511 H 68.48332 c 3.31e-4,-8.00402 0,-26.805865 0,-26.805865 z"
       style="fill:#447e9b;fill-opacity:1;stroke:#363636;stroke-width:1.61181796;stroke-linecap:round;stroke-linejoin:bevel;stroke-miterlimit:4;stroke-dasharray:none;stroke-opacity:1;paint-order:markers fill stroke" />
  </g>
  <g
     style="stroke:none"
     transform="matrix(1.4068254,-0.05644701,0.06495889,1.3101464,-39.357112,-24.065631)"
     id="g1430">
    <path
       id="path1363"
       style="fill:#447e9b;fill-opacity:1;stroke:none;stroke-width:0.65667903;stroke-linecap:round;stroke-linejoin:round;paint-order:markers fill stroke;stroke-opacity:1"
       d="m 94.951639,94.203981 -2.809303,5.258764 2.404841,2.623805 -1.703753,3.18927 -11.368931,-13.300731 1.484767,-2.779352 17.17447,2.433292 -1.703756,3.189273 z m -4.757219,3.133488 1.944078,-3.63914 -6.316405,-1.120756 z" />
    <path
       id="path1365"
       style="fill:#447e9b;fill-opacity:1;stroke:none;stroke-width:0.65667903;stroke-linecap:round;stroke-linejoin:round;paint-order:markers fill stroke;stroke-opacity:1"
       d="m 94.200247,73.925636 -2.382002,4.458894 11.883075,6.566503 -1.60228,2.999314 -11.883069,-6.566503 -2.349993,4.398977 -2.380528,-1.315464 6.334363,-11.857362 z" />
    <path
       id="path1367"
       style="fill:#447e9b;fill-opacity:1;stroke:none;stroke-width:0.65670035;stroke-linecap:round;stroke-linejoin:round;paint-order:markers fill stroke;stroke-opacity:1;stroke-miterlimit:4;stroke-dasharray:none"
       d="m 107.81218,70.130199 -2.8093,5.258764 2.40484,2.623806 -1.70376,3.189273 -11.368927,-13.300735 1.484768,-2.779352 17.174469,2.433292 -1.70376,3.189273 z m -4.75722,3.133488 1.94408,-3.639139 -6.316407,-1.120757 z" />
  </g>
</svg>
