<svg width="512" height="512" version="1.1" viewBox="0 0 135.47 135.47" xmlns="http://www.w3.org/2000/svg"><g transform="matrix(.99909 0 0 .99998 4.7956e-6 -2.3588e-7)"><g transform="translate(115 46.144)"><g transform="translate(4.0889e-6 1.8521)"><rect x="-114.88" y="-47.996" width="135.47" height="135.47" fill="#b3b3b3" style="paint-order:normal"/><path d="m-114.78-47.993h135.25s-134.75 136.46-135.25 135.46c-0.49772-0.99702 0-135.46 0-135.46z" fill="#447e9b"/></g></g><g transform="matrix(1.2354 0 0 1.2426 -26.321 -23.068)"><path transform="matrix(1.06 0 0 1.0539 -4.2986 -6.8132)" d="m121.38 75.803a45.459 45.459 0 0 1-45.459 45.459 45.459 45.459 0 0 1-45.459-45.459 45.459 45.459 0 0 1 45.459-45.459 45.459 45.459 0 0 1 45.459 45.459z" fill="#363636" style="paint-order:markers fill stroke"/></g><g transform="matrix(.99274 0 0 .97352 -7.4152 -11.164)" stroke="#363636" stroke-linecap="round" stroke-linejoin="bevel" stroke-width="1.6118" style="paint-order:markers fill stroke"><path transform="matrix(1.2354 0 0 1.2426 -18.192 -13.147)" d="m76.048 75.8 15.08-33.304h16.324l-23.79 47.113v26.806h-15.18v-26.806l-23.79-47.113h16.374z" fill="#b3b3b3" style="paint-order:markers fill stroke"/><path transform="matrix(1.2354 0 0 1.2426 -18.192 -13.147)" d="m68.483 89.609-4.4134-8.9258c0.88466-8.0264 1.9238-9.2168 8.4896-12.282l3.5181 7.7443 4.7822-10.056s6.7576-2.588 11.337-8.4914c4.3323-5.5853 4.3249-15.321 4.3249-15.321l10.931 0.21871-23.79 47.113v26.806h-15.18c3.31e-4 -8.004 0-26.806 0-26.806z" fill="#447e9b" style="paint-order:markers fill stroke"/></g><g transform="matrix(1.4068 -.056447 .064959 1.3101 -39.357 -24.066)" fill="#447e9b"><path d="m94.952 94.204-2.8093 5.2588 2.4048 2.6238-1.7038 3.1893-11.369-13.301 1.4848-2.7794 17.174 2.4333-1.7038 3.1893zm-4.7572 3.1335 1.9441-3.6391-6.3164-1.1208z" style="paint-order:markers fill stroke"/><path d="m94.2 73.926-2.382 4.4589 11.883 6.5665-1.6023 2.9993-11.883-6.5665-2.35 4.399-2.3805-1.3155 6.3344-11.857z" style="paint-order:markers fill stroke"/><path d="m107.81 70.13-2.8093 5.2588 2.4048 2.6238-1.7038 3.1893-11.369-13.301 1.4848-2.7794 17.174 2.4333-1.7038 3.1893zm-4.7572 3.1335 1.9441-3.6391-6.3164-1.1208z" style="paint-order:markers fill stroke"/></g></g><g><text x="-135.84163" y="-33.372589" fill="#000000" font-family="'Noto Sans'" font-size="10.583px" font-weight="bold" stroke-width=".26458" style="line-height:1.25" xml:space="preserve"><tspan x="-135.84163" y="-33.372589" font-family="'Noto Sans'" font-weight="bold" stroke-width=".26458"/></text><g fill="#363636" fill-opacity=".23735" aria-label="L"><path d="m0.52917 7.572v-7.0428h1.4895v5.8098h2.8605v1.233z" fill="#363636" fill-opacity=".23735" stroke-width=".2466"/></g><g fill="#363636" fill-opacity=".23735" aria-label="O"><path d="m134.94 4.1492q0 1.0949-0.36496 1.9136-0.35511 0.80884-1.0949 1.2626-0.7398 0.45374-1.8939 0.45374-1.1442 0-1.8939-0.45374-0.73979-0.45374-1.1048-1.2724-0.3551-0.81871-0.3551-1.9136t0.3551-1.9037q0.36497-0.80884 1.1048-1.2527 0.74966-0.45374 1.9037-0.45374 1.1442 0 1.884 0.45374 0.73979 0.44388 1.0949 1.2626 0.36496 0.80884 0.36496 1.9037zm-5.1391 0q0 1.1048 0.42415 1.7459 0.42415 0.63129 1.3612 0.63129 0.95681 0 1.3711-0.63129 0.41429-0.64116 0.41429-1.7459 0-1.1146-0.41429-1.7459-0.41428-0.63129-1.3612-0.63129t-1.3711 0.63129q-0.42415 0.63129-0.42415 1.7459z" fill="#363636" fill-opacity=".23735" stroke-width=".2466"/></g><text x="-13.996297" y="-8.5756578" fill="#000000" font-family="sans-serif" font-size="10.583px" stroke-width=".26458" style="line-height:1.25" xml:space="preserve"><tspan x="-13.996297" y="-8.5756578" stroke-width=".26458"/></text><g fill="#363636" fill-opacity=".23735" aria-label="V"><path d="m134.94 127.89-2.3969 7.0428h-1.6275l-2.3871-7.0428h1.5092l1.3218 4.1922q0.0395 0.1085 0.10851 0.40442 0.0789 0.28605 0.15782 0.61156 0.0789 0.31565 0.1085 0.53266 0.0296-0.21701 0.0986-0.53266 0.0789-0.32551 0.15782-0.61156 0.0789-0.29592 0.10851-0.40442l1.3316-4.1922z" fill="#363636" fill-opacity=".23735" stroke-width=".2466"/></g><g fill="#363636" fill-opacity=".23735" aria-label="E"><path d="m4.5832 134.94h-4.0541v-7.0428h4.0541v1.2231h-2.5646v1.5486h2.3871v1.2231h-2.3871v1.815h2.5646z" fill="#363636" fill-opacity=".23735" stroke-width=".2466"/></g></g></svg>
