<?xml version="1.0" encoding="UTF-8" standalone="no"?>
<svg
   xmlns:dc="http://purl.org/dc/elements/1.1/"
   xmlns:cc="http://creativecommons.org/ns#"
   xmlns:rdf="http://www.w3.org/1999/02/22-rdf-syntax-ns#"
   xmlns:svg="http://www.w3.org/2000/svg"
   xmlns="http://www.w3.org/2000/svg"
   height="128"
   width="128"
   id="svg2000"
   version="1.1"
   viewBox="0 0 512 512">
  <metadata
     id="metadata2006">
    <rdf:RDF>
      <cc:Work
         rdf:about="">
        <dc:format>image/svg+xml</dc:format>
        <dc:type
           rdf:resource="http://purl.org/dc/dcmitype/StillImage" />
        <dc:title></dc:title>
      </cc:Work>
    </rdf:RDF>
  </metadata>
  <defs
     id="defs2004" />
  <circle
     r="256"
     cy="256"
     cx="256"
     id="path2593"
     style="opacity:1;fill:#efefef;fill-opacity:1;stroke:none;stroke-width:5.27071047;stroke-linecap:butt;stroke-linejoin:round;stroke-miterlimit:4;stroke-dasharray:none;stroke-dashoffset:0;stroke-opacity:0.6;paint-order:normal" />
  <g
     transform="translate(-1.0058594e-5,0.88816802)"
     id="g926">
    <path
       d="m 149.64009,363.41256 c -8.96072,-3.50636 -18.70064,-7.79193 -28.44056,-13.24628 -1.16879,-0.7792 -2.33758,-1.16879 -3.50636,-1.94799 -0.7792,-0.38959 -1.16879,-0.77919 -1.55839,-1.16879 -7.01275,-3.89596 -10.90871,-6.62314 -10.90871,-6.62314 0,0 18.70064,31.16773 68.17942,45.97241 -11.68791,14.80467 -26.10298,32.33653 -26.10298,32.33653 -86.10087,-2.72718 -118.826959,-59.2187 -118.826959,-59.2187 0,-125.45013 56.101892,-227.13486 56.101892,-227.13486 C 140.67937,90.305276 194.05412,91.474076 194.05412,91.474076 l 3.89597,4.675165 C 127.82267,116.40827 95.48615,147.18641 95.48615,147.18641 c 0,0 8.57113,-4.67516 22.9862,-11.2983 41.68686,-18.31105 74.80257,-23.37581 88.43845,-24.5446 2.3376,-0.3896 4.28557,-0.77918 6.62314,-0.77918 23.76541,-3.11678 50.64759,-3.89598 78.69855,-0.7792 38.88811,7.00267 23.37175,3.69392 23.37175,3.69392 0,0 15.87895,5.64931 14.07114,23.85894 -1.57935,15.90834 -7.64751,38.90157 -16.14679,54.74787 -11.94856,22.27724 -25.24723,32.12965 -46.44704,36.32906 -18.39735,3.64428 -29.9365,5.28232 -41.20703,13.52148 -11.35693,8.30233 -19.47552,26.66371 -20.52247,46.29325 -1.32333,24.81147 -18.68689,49.07915 -42.1787,58.76109 -12.51004,5.1559 -8.3093,17.3481 -13.53326,16.42182 z"
       id="path1998-7-5"
       style="opacity:1;fill:#447e9b;fill-opacity:1;stroke:none;stroke-width:3.89596701;stroke-opacity:1" />
    <path
       d="m 364.30787,418.7353 c 0,0 -14.02547,-16.75266 -25.71338,-31.55733 51.03716,-14.41509 70.517,-46.36201 70.517,-46.36201 -15.97346,10.51911 -31.16773,17.92145 -44.80362,22.9862 -19.47982,8.18153 -38.18047,13.63589 -56.49152,16.75266 -37.40128,7.01274 -71.68579,5.06476 -100.90555,-0.3896 -22.207,-4.28556 -41.29724,-10.5191 -57.27071,-16.75266 18.46935,-36.05256 40.67636,-5.54489 55.76974,-78.12618 1.24664,-30.16482 16.64437,-41.12713 33.07098,-50.34811 6.08389,-3.41516 22.12655,-7.36769 29.88761,-7.91075 45.92257,-3.21331 59.9557,-72.28221 61.56112,-91.42623 1.57557,-18.78804 -12.55941,-18.29493 -14.3253,-22.12224 45.85331,11.2658 51.98275,11.9657 93.89686,33.70736 0,0 -30.77814,-29.21975 -97.00959,-49.478769 l 5.45436,-6.233554 c 0,0 53.37475,-1.1688 109.47668,40.907653 0,0 56.10192,101.68473 56.10192,227.13486 0,0 -33.11571,56.49152 -119.2166,59.2187 z"
       id="path1998"
       style="opacity:1;fill:#b3b3b3;fill-opacity:1;stroke:none;stroke-width:3.89596701;stroke-opacity:1" />
    <path
       d="m 364.30787,418.7353 c 0,0 -14.02547,-16.75266 -25.71338,-31.55733 51.03716,-14.41509 70.517,-46.36201 70.517,-46.36201 -15.97346,10.51911 -31.16773,17.92145 -44.80362,22.9862 -19.47982,8.18153 -38.18047,13.63589 -56.49152,16.75266 -37.40128,7.01274 -71.68579,5.06476 -100.90555,-0.3896 -22.207,-4.28556 -41.29724,-10.5191 -57.27071,-16.75266 -8.96072,-3.50636 -18.70064,-7.79193 -28.44056,-13.24628 -1.16879,-0.7792 -2.33758,-1.16879 -3.50636,-1.94799 -0.7792,-0.38959 -1.16879,-0.77919 -1.55839,-1.16879 -7.01275,-3.89596 -10.90871,-6.62314 -10.90871,-6.62314 0,0 18.70064,31.16773 68.17942,45.97241 -11.68791,14.80467 -26.10298,32.33653 -26.10298,32.33653 -86.10087,-2.72718 -118.826959,-59.2187 -118.826959,-59.2187 0,-125.45013 56.101892,-227.13486 56.101892,-227.13486 C 140.67937,90.305276 194.05412,91.474076 194.05412,91.474076 l 3.89596,4.675165 C 127.82267,116.40827 95.48615,147.18641 95.48615,147.18641 c 0,0 8.57113,-4.67516 22.9862,-11.2983 41.68686,-18.31105 74.80257,-23.37581 88.43845,-24.5446 2.3376,-0.3896 4.28557,-0.77918 6.62314,-0.77918 23.76541,-3.11678 50.64759,-3.89598 78.69855,-0.7792 37.01168,4.28556 76.75054,15.19427 117.2686,37.40128 0,0 -30.77814,-29.21975 -97.00958,-49.478781 l 5.45436,-6.233553 c 0,0 53.37475,-1.1688 109.47668,40.907664 0,0 56.10192,101.68473 56.10192,227.13486 0,0 -33.11571,56.49152 -119.2166,59.2187 z"
       id="path1998-7"
       style="opacity:1;fill:none;fill-opacity:1;stroke:#363636;stroke-width:2.27264738;stroke-miterlimit:4;stroke-dasharray:none;stroke-opacity:1" />
    <path
       d="m 181.17582,267.57088 c -22.207,0 -39.73885,19.47983 -39.73885,43.24523 0,23.7654 17.92145,43.24524 39.73885,43.24524 22.207,0 39.73887,-19.47984 39.73887,-43.24524 0.38958,-23.7654 -17.53187,-43.24523 -39.73887,-43.24523 z m 142.20281,0 c -22.20705,0 -39.73883,19.47983 -39.73883,43.24523 0,23.7654 17.92141,43.24524 39.73883,43.24524 22.20695,0 39.73884,-19.47984 39.73884,-43.24524 0,-23.7654 -17.53189,-43.24523 -39.73884,-43.24523 z"
       id="path1996"
       style="opacity:1;fill:#363636;fill-opacity:1;stroke:#363636;stroke-width:3.89600015;stroke-miterlimit:4;stroke-dasharray:none;stroke-opacity:1" />
    <path
       style="opacity:1;fill:none;stroke:#363636;stroke-width:2.27264738;stroke-linecap:butt;stroke-linejoin:miter;stroke-miterlimit:4;stroke-dasharray:none;stroke-opacity:1"
       d="m 150.80346,363.5289 c 0,0 4.57589,-9.20049 8.07902,-12.85191 7.62548,-7.94829 20.29513,-10.16704 27.22289,-18.73029 10.58666,-13.08584 14.84924,-21.12663 19.30446,-46.66032 3.1614,-18.11864 3.33025,-35.03686 32.76962,-49.74274 9.55955,-4.77529 30.37787,-7.11296 40.42946,-11.36538 33.34115,-14.10531 42.39583,-39.72839 50.82873,-87.25058 3.13279,-17.65433 -13.8334,-23.44863 -13.8334,-23.44863"
       id="path2654" />
  </g>
  <g
     id="g1211"
     transform="matrix(3.0748261,0,0,3.0717895,17.962053,14.584217)"
     style="stroke:#363636;stroke-width:0.97614706;stroke-linecap:round;stroke-linejoin:bevel;stroke-miterlimit:4;stroke-dasharray:none;stroke-opacity:1;paint-order:markers fill stroke">
    <path
       transform="matrix(1.2354389,0,0,1.2426277,-18.192398,-13.147261)"
       d="M 76.048222,75.800269 91.128185,42.495964 H 107.45249 L 83.662967,89.609245 V 116.41511 H 68.48332 V 89.609245 L 64.941517,82.594984 44.693794,42.495964 h 16.374151 z"
       style="opacity:0.972;fill:#b3b3b3;fill-opacity:1;stroke:#363636;stroke-width:0.78783286;stroke-linecap:round;stroke-linejoin:bevel;stroke-miterlimit:4;stroke-dasharray:none;stroke-opacity:1;paint-order:markers fill stroke"
       id="path14" />
    <path
       transform="matrix(1.2354389,0,0,1.2426277,-18.192398,-13.147261)"
       style="fill:#447e9b;fill-opacity:1;stroke:#363636;stroke-width:0.78783286;stroke-linecap:round;stroke-linejoin:bevel;stroke-miterlimit:4;stroke-dasharray:none;stroke-opacity:1;paint-order:markers fill stroke"
       d="m 68.48332,89.609245 -4.413402,-8.925821 c 0.884657,-8.026383 1.923849,-9.216841 8.489554,-12.282315 l 3.518137,7.744315 4.782239,-10.055763 c 0,0 6.757577,-2.587952 11.33664,-8.491443 4.332279,-5.585328 4.324888,-15.032479 4.324888,-15.032479 L 107.45249,42.495964 83.662967,89.609245 V 116.41511 H 68.48332 c 3.31e-4,-8.00402 0,-26.805865 0,-26.805865 z"
       id="path1076" />
  </g>
</svg>
