<?xml version="1.0" encoding="UTF-8" standalone="no"?>
<svg
   xmlns:dc="http://purl.org/dc/elements/1.1/"
   xmlns:cc="http://creativecommons.org/ns#"
   xmlns:rdf="http://www.w3.org/1999/02/22-rdf-syntax-ns#"
   xmlns:svg="http://www.w3.org/2000/svg"
   xmlns="http://www.w3.org/2000/svg"
   xmlns:sodipodi="http://sodipodi.sourceforge.net/DTD/sodipodi-0.dtd"
   xmlns:inkscape="http://www.inkscape.org/namespaces/inkscape"
   class="default___3oPC0 "
   filter=""
   fill="#fff"
   stroke="#fff"
   stroke-width="0"
   width="34.72"
   height="34.32"
   viewBox="0 0 34.72 34.32"
   version="1.1"
   id="svg18"
   sodipodi:docname="loot-IV.svg"
   inkscape:version="0.92.3 (2405546, 2018-03-11)">
  <metadata
     id="metadata24">
    <rdf:RDF>
      <cc:Work
         rdf:about="">
        <dc:format>image/svg+xml</dc:format>
        <dc:type
           rdf:resource="http://purl.org/dc/dcmitype/StillImage" />
        <dc:title></dc:title>
      </cc:Work>
    </rdf:RDF>
  </metadata>
  <defs
     id="defs22" />
  <sodipodi:namedview
     pagecolor="#ffffff"
     bordercolor="#666666"
     borderopacity="1"
     objecttolerance="10"
     gridtolerance="10"
     guidetolerance="10"
     inkscape:pageopacity="0"
     inkscape:pageshadow="2"
     inkscape:window-width="1193"
     inkscape:window-height="774"
     id="namedview20"
     showgrid="false"
     inkscape:zoom="9.7247787"
     inkscape:cx="-1.6485567"
     inkscape:cy="18.732911"
     inkscape:window-x="333"
     inkscape:window-y="137"
     inkscape:window-maximized="0"
     inkscape:current-layer="svg18" />
  <polygon
     class="cls-1"
     points="9.85 20.7 2.18 13.32 12.72 11.87 17.36 2.29 22 11.87 32.54 13.32 24.87 20.7 26.74 31.17 17.36 26.15 7.98 31.17 9.85 20.7"
     style="fill: rgb(241, 241, 241);"
     id="polygon2" />
  <path
     class="cls-2"
     d="M17.36,4.59l1.43,3,2.54,5.25,5.78.79,3.25.45L28,16.3l-4.21,4.05,1,5.74.57,3.23L22.5,27.77,17.36,25l-5.14,2.75-2.9,1.55.58-3.23,1-5.74L6.72,16.3,4.36,14l3.25-.45,5.78-.79,2.54-5.25,1.43-2.95m0-4.59-1.8,3.71-1.43,3L12.05,11l-4.72.65-3.24.45L0,12.62l3,2.85,2.37,2.28,3.43,3.3-.84,4.69L7.36,29,6.63,33l3.64-1.94,2.89-1.55,4.2-2.24,4.2,2.24,2.89,1.55L28.09,33,27.36,29l-.57-3.22L26,21.05l3.43-3.3,2.37-2.28,3-2.85-4.09-.57-3.24-.45L22.67,11,20.59,6.66,19.16,3.71,17.36,0Z"
     style="fill: rgb(218, 165, 32);"
     id="path4" />
  <path
     class="cls-2"
     d="M5.32,31.32l1.61-9L.36,16l4.41,7Z"
     style="fill: rgb(218, 165, 32);"
     id="path6" />
  <path
     class="cls-2"
     d="M30.16,23.05l4.41-7L28,22.35l1.6,9Z"
     style="fill: rgb(218, 165, 32);"
     id="path8" />
  <path
     class="cls-2"
     d="M1.08,10.2l9-1.24,4-8.2L8.77,7.12Z"
     style="fill: rgb(218, 165, 32);"
     id="path10" />
  <path
     class="cls-2"
     d="M26,7.12,20.72.76l4,8.2,9,1.24Z"
     style="fill: rgb(218, 165, 32);"
     id="path12" />
  <path
     class="cls-2"
     d="m 14.710001,14.17 v 7 h -2 v -7 z"
     style="fill:#daa520"
     id="path14"
     inkscape:connector-curvature="0" />
  <path
     class="cls-2"
     d="m 17.810001,21.17 -2.24,-7 h 1.59 l 0.93,3.25 c 0.26,0.92 0.5,1.79 0.69,2.75 v 0 c 0.2,-0.92 0.43,-1.83 0.7,-2.71 l 1,-3.29 h 1.53 l -2.36,7 z"
     style="fill:#daa520"
     id="path16"
     inkscape:connector-curvature="0" />
</svg>
